<svg width="31" height="30" viewBox="0 0 31 30" fill="none" xmlns="http://www.w3.org/2000/svg">
<path d="M16.3471 24.9467C16.6905 25.0266 16.7219 25.4764 16.3874 25.5879L14.4124 26.2379C9.44994 27.8379 6.83744 26.5004 5.22494 21.5379L3.62494 16.6004C2.02494 11.6379 3.34994 9.01289 8.31244 7.41289L9.22144 7.11186C9.6243 6.97844 10.0129 7.38117 9.89217 7.78802C9.79426 8.11805 9.70193 8.468 9.61244 8.83789L8.38744 14.0754C7.01244 19.9629 9.02494 23.2129 14.9124 24.6129L16.3471 24.9467Z" fill="#9E9E9E"/>
<path d="M21.9627 4.01263L19.8752 3.52513C15.7002 2.53763 13.2127 3.35013 11.7502 6.37513C11.3752 7.13763 11.0752 8.06263 10.8252 9.12513L9.60022 14.3626C8.37522 19.5876 9.98772 22.1626 15.2002 23.4001L17.3002 23.9001C18.0252 24.0751 18.7002 24.1876 19.3252 24.2376C23.2252 24.6126 25.3002 22.7876 26.3502 18.2751L27.5752 13.0501C28.8002 7.82513 27.2002 5.23763 21.9627 4.01263ZM19.6127 16.6626C19.5002 17.0876 19.1252 17.3626 18.7002 17.3626C18.6252 17.3626 18.5502 17.3501 18.4627 17.3376L14.8252 16.4126C14.3252 16.2876 14.0252 15.7751 14.1502 15.2751C14.2752 14.7751 14.7877 14.4751 15.2877 14.6001L18.9252 15.5251C19.4377 15.6501 19.7377 16.1626 19.6127 16.6626ZM23.2752 12.4376C23.1627 12.8626 22.7877 13.1376 22.3627 13.1376C22.2877 13.1376 22.2127 13.1251 22.1252 13.1126L16.0627 11.5751C15.5627 11.4501 15.2627 10.9376 15.3877 10.4376C15.5127 9.93763 16.0252 9.63763 16.5252 9.76263L22.5877 11.3001C23.1002 11.4126 23.4002 11.9251 23.2752 12.4376Z" fill="#9E9E9E"/>
</svg>
