<svg width="28" height="28" viewBox="0 0 28 28" fill="none" xmlns="http://www.w3.org/2000/svg">
<path d="M14.0002 2.33398C7.56016 2.33398 2.3335 7.56065 2.3335 14.0007C2.3335 20.4407 7.56016 25.6673 14.0002 25.6673C20.4402 25.6673 25.6668 20.4407 25.6668 14.0007C25.6668 7.56065 20.4402 2.33398 14.0002 2.33398ZM18.1185 15.4357L12.0752 19.624C11.1885 20.2423 10.6752 19.8807 10.9318 18.8423L12.0402 14.3623L10.1152 13.884C9.24016 13.674 9.13516 13.0673 9.87016 12.554L15.9135 8.36565C16.8002 7.74732 17.3135 8.10898 17.0568 9.14732L15.9485 13.6273L17.8735 14.1057C18.7485 14.3273 18.8535 14.9223 18.1185 15.4357Z" fill="black"/>
</svg>
