<svg width="29" height="28" viewBox="0 0 29 28" fill="none" xmlns="http://www.w3.org/2000/svg">
<path d="M23.2496 8.75068L21.5112 10.489L18.0112 6.98901L19.7496 5.25068C20.2396 4.76068 20.8696 4.52734 21.4996 4.52734C22.1296 4.52734 22.7596 4.76068 23.2496 5.25068C24.2179 6.21901 24.2179 7.78234 23.2496 8.75068Z" fill="#9E9E9E"/>
<path d="M20.6949 11.3164L8.08318 23.9164C7.11485 24.8847 5.55152 24.8847 4.58318 23.9164C3.61485 22.9481 3.61485 21.3847 4.58318 20.4164L17.1949 7.81641L20.6949 11.3164Z" fill="#9E9E9E"/>
<path d="M12.1083 4.08457L12.5866 2.46291C12.6333 2.31124 12.5866 2.14791 12.4816 2.03124C12.3766 1.91457 12.1899 1.86791 12.0383 1.91457L10.4166 2.39291L8.79494 1.91457C8.64327 1.86791 8.47994 1.91457 8.36327 2.01957C8.2466 2.13624 8.21161 2.29957 8.25827 2.45124L8.72494 4.08457L8.2466 5.70624C8.19994 5.85791 8.24661 6.02124 8.35161 6.13791C8.46827 6.25457 8.63161 6.28957 8.78327 6.24291L10.4166 5.77624L12.0383 6.25457C12.0849 6.26624 12.1199 6.27791 12.1666 6.27791C12.2833 6.27791 12.3883 6.23124 12.4816 6.14957C12.5983 6.03291 12.6333 5.86957 12.5866 5.71791L12.1083 4.08457Z" fill="#9E9E9E"/>
<path d="M7.44177 11.0846L7.9201 9.46291C7.96677 9.31124 7.9201 9.14791 7.8151 9.03124C7.69843 8.91457 7.5351 8.87957 7.38343 8.92624L5.7501 9.39291L4.12843 8.91457C3.97677 8.86791 3.81343 8.91457 3.69677 9.01957C3.5801 9.13624 3.5451 9.29957 3.59177 9.45124L4.05843 11.0846L3.5801 12.7062C3.53343 12.8579 3.5801 13.0212 3.6851 13.1379C3.80177 13.2546 3.9651 13.2896 4.11677 13.2429L5.73843 12.7646L7.3601 13.2429C7.3951 13.2546 7.44177 13.2546 7.48843 13.2546C7.6051 13.2546 7.7101 13.2079 7.80343 13.1262C7.9201 13.0096 7.9551 12.8462 7.90843 12.6946L7.44177 11.0846Z" fill="#9E9E9E"/>
<path d="M24.9418 16.9166L25.4202 15.2949C25.4668 15.1433 25.4202 14.9799 25.3152 14.8633C25.1985 14.7466 25.0352 14.7116 24.8835 14.7583L23.2618 15.2366L21.6402 14.7583C21.4885 14.7116 21.3252 14.7583 21.2085 14.8633C21.0918 14.9799 21.0568 15.1433 21.1035 15.2949L21.5818 16.9166L21.1035 18.5383C21.0568 18.6899 21.1035 18.8533 21.2085 18.9699C21.3252 19.0866 21.4885 19.1216 21.6402 19.0749L23.2618 18.5966L24.8835 19.0749C24.9185 19.0866 24.9652 19.0866 25.0118 19.0866C25.1285 19.0866 25.2335 19.0399 25.3268 18.9583C25.4435 18.8416 25.4785 18.6783 25.4318 18.5266L24.9418 16.9166Z" fill="#9E9E9E"/>
</svg>
