<svg width="29" height="28" viewBox="0 0 29 28" fill="none" xmlns="http://www.w3.org/2000/svg">
<path d="M23.2501 8.75068L21.5117 10.489L18.0117 6.98901L19.7501 5.25068C20.2401 4.76068 20.8701 4.52734 21.5001 4.52734C22.1301 4.52734 22.7601 4.76068 23.2501 5.25068C24.2184 6.21901 24.2184 7.78234 23.2501 8.75068Z" fill="black"/>
<path d="M20.6953 11.3164L8.08367 23.9164C7.11534 24.8847 5.55201 24.8847 4.58367 23.9164C3.61534 22.9481 3.61534 21.3847 4.58367 20.4164L17.1953 7.81641L20.6953 11.3164Z" fill="black"/>
<path d="M12.1083 4.08457L12.5866 2.46291C12.6333 2.31124 12.5866 2.14791 12.4816 2.03124C12.3766 1.91457 12.1899 1.86791 12.0383 1.91457L10.4166 2.39291L8.79494 1.91457C8.64327 1.86791 8.47994 1.91457 8.36327 2.01957C8.2466 2.13624 8.21161 2.29957 8.25827 2.45124L8.72494 4.08457L8.2466 5.70624C8.19994 5.85791 8.24661 6.02124 8.35161 6.13791C8.46827 6.25457 8.63161 6.28957 8.78327 6.24291L10.4166 5.77624L12.0383 6.25457C12.0849 6.26624 12.1199 6.27791 12.1666 6.27791C12.2833 6.27791 12.3883 6.23124 12.4816 6.14957C12.5983 6.03291 12.6333 5.86957 12.5866 5.71791L12.1083 4.08457Z" fill="black"/>
<path d="M7.44128 11.0846L7.91961 9.46291C7.96628 9.31124 7.91961 9.14791 7.81461 9.03124C7.69795 8.91457 7.53461 8.87957 7.38295 8.92624L5.74961 9.39291L4.12795 8.91457C3.97628 8.86791 3.81295 8.91457 3.69628 9.01957C3.57961 9.13624 3.54461 9.29957 3.59128 9.45124L4.05795 11.0846L3.57961 12.7062C3.53295 12.8579 3.57961 13.0212 3.68461 13.1379C3.80128 13.2546 3.96461 13.2896 4.11628 13.2429L5.73795 12.7646L7.35961 13.2429C7.39461 13.2546 7.44128 13.2546 7.48795 13.2546C7.60461 13.2546 7.70961 13.2079 7.80295 13.1262C7.91961 13.0096 7.95461 12.8462 7.90795 12.6946L7.44128 11.0846Z" fill="black"/>
<path d="M24.9423 16.9166L25.4207 15.2949C25.4673 15.1433 25.4207 14.9799 25.3157 14.8633C25.199 14.7466 25.0357 14.7116 24.884 14.7583L23.2623 15.2366L21.6407 14.7583C21.489 14.7116 21.3257 14.7583 21.209 14.8633C21.0923 14.9799 21.0573 15.1433 21.104 15.2949L21.5823 16.9166L21.104 18.5383C21.0573 18.6899 21.104 18.8533 21.209 18.9699C21.3257 19.0866 21.489 19.1216 21.6407 19.0749L23.2623 18.5966L24.884 19.0749C24.919 19.0866 24.9657 19.0866 25.0123 19.0866C25.129 19.0866 25.234 19.0399 25.3273 18.9583C25.444 18.8416 25.479 18.6783 25.4323 18.5266L24.9423 16.9166Z" fill="black"/>
</svg>
